<svg xmlns="http://www.w3.org/2000/svg" x="0px" y="0px" width="100" height="100" viewBox="0 0 24 24">
<path fill="#FF5722" d="M5.827,19.463L12.006,24l6.153-4.544l-6.155-4.59l-6.166,4.58L8.2,12.013l-6.196-4.55l7.639-0.045L12.008,0	H4.337l-2.33,7.448C0.653,11.76,2.037,16.654,5.827,19.463z"></path><path fill="#FF5722" d="M21.971,7.448l-6.148,4.565l2.342,7.439l0.006-0.004c3.76-2.81,5.188-7.688,3.82-12.015l-0.003,0.002	L19.629,0h-7.621l2.359,7.404L21.971,7.448z"></path><polygon points="18.649,19.463 18.645,19.452 18.639,19.456"></polygon>
</svg>
